# Exported from ProBuilder
# http://www.procore3d.com/probuilder
# 12/30/2018 5:50:42 PM

mtllib ./ceiling.mtl
o ceiling

g ceiling
v -10 10 -10
v -14 10 -10
v -10 10 -6
v -14 10 -6
v -18 10 -10
v -18 10 -6
v -22 10 -10
v -22 10 -6
v -26 10 -10
v -26 10 -6
v -30 10 -10
v -30 10 -6
v -10 10 -2
v -14 10 -2
v -26 10 -2
v -30 10 -2
v -10 10 2
v -14 10 2
v -26 10 2
v -30 10 2
v -10 10 6
v -14 10 6
v -26 10 6
v -30 10 6
v -10 10 10
v -14 10 10
v -18 10 6
v -18 10 10
v -22 10 6
v -22 10 10
v -26 10 10
v -30 10 10
v -14 9 -4
v -16 9 -6
v -16 9 -4
v -14 9 -6
v -18 9 -6
v -18 9 -4
v -14 9 -2
v -16 9 -2
v -20 9 -6
v -20 9 -4
v -22 9 -6
v -22 9 -4
v -24 9 -6
v -24 9 -4
v -26 9 -6
v -26 9 -4
v -24 9 -2
v -26 9 -2
v -14 9 0
v -16 9 0
v -14 9 2
v -16 9 2
v -24 9 0
v -26 9 0
v -24 9 2
v -26 9 2
v -14 9 4
v -16 9 4
v -16 9 6
v -18 9 4
v -18 9 6
v -14 9 6
v -20 9 6
v -22 9 4
v -22 9 6
v -20 9 4
v -24 9 4
v -26 9 4
v -24 9 6
v -26 9 6
v -18 10 -6
v -16 9 -6
v -14 10 -6
v -14 9 -6
v -18 9 -6
v -14 10 -6
v -14 9 -4
v -14 10 -2
v -14 9 -2
v -14 9 -6
v -26 9 -4
v -26 9 -6
v -26 10 -6
v -26 10 -2
v -26 9 -2
v -14 9 0
v -14 10 2
v -14 9 2
v -22 10 -6
v -20 9 -6
v -22 9 -6
v -26 10 -6
v -24 9 -6
v -26 9 -6
v -26 9 0
v -26 10 2
v -26 9 2
v -20 9 6
v -22 9 6
v -22 10 6
v -18 10 6
v -18 9 6
v -26 9 4
v -26 10 6
v -26 9 6
v -24 9 6
v -26 9 6
v -26 10 6
v -16 9 6
v -14 10 6
v -14 9 6
v -14 9 4
v -14 10 6
v -14 9 6
v -24 9 2
v -24 9 4
v -24 9.75 2
v -24 9.75 4
v -24 9 4
v -22 9 4
v -24 9.75 4
v -22 9.75 4
v -20 9 4
v -20 9.75 4
v -18 9 4
v -18 9.75 4
v -16 9 4
v -16 9.75 4
v -16 9 4
v -16 9 2
v -16 9.75 4
v -16 9.75 2
v -16 9 0
v -16 9.75 0
v -16 9 -2
v -16 9.75 -2
v -16 9 -4
v -16 9.75 -4
v -18 9 -4
v -20 9 -4
v -18 9.75 -4
v -20 9.75 -4
v -16 9 -4
v -16 9.75 -4
v -22 9 -4
v -22 9.75 -4
v -24 9 -4
v -24 9.75 -4
v -24 9 -4
v -24 9 -2
v -24 9.75 -4
v -24 9.75 -2
v -24 9 0
v -24 9.75 0

vn 0 -1 0
vn 0 -1 0
vn 0 -1 0
vn 0 -1 0
vn 0 -1 0
vn 0 -1 0
vn 0 -1 0
vn 0 -1 0
vn 0 -1 0
vn 0 -1 0
vn 0 -1 0
vn 0 -1 0
vn 0 -1 0
vn 0 -1 0
vn 0 -1 0
vn 0 -1 0
vn 0 -1 0
vn 0 -1 0
vn 0 -1 0
vn 0 -1 0
vn 0 -1 0
vn 0 -1 0
vn 0 -1 0
vn 0 -1 0
vn 0 -1 0
vn 0 -1 0
vn 0 -1 0
vn 0 -1 0
vn 0 -1 0
vn 0 -1 0
vn 0 -1 0
vn 0 -1 0
vn 0 -1 0
vn 0 -1 0
vn 0 -1 0
vn 0 -1 0
vn 0 -1 0
vn 0 -1 0
vn 0 -1 0
vn 0 -1 0
vn 0 -1 0
vn 0 -1 0
vn 0 -1 0
vn 0 -1 0
vn 0 -1 0
vn 0 -1 0
vn 0 -1 0
vn 0 -1 0
vn 0 -1 0
vn 0 -1 0
vn 0 -1 0
vn 0 -1 0
vn 0 -1 0
vn 0 -1 0
vn 0 -1 0
vn 0 -1 0
vn 0 -1 0
vn 0 -1 0
vn 0 -1 0
vn 0 -1 0
vn 0 -1 0
vn 0 -1 0
vn 0 -1 0
vn 0 -1 0
vn 0 -1 0
vn 0 -1 0
vn 0 -1 0
vn 0 -1 0
vn 0 -1 0
vn 0 -1 0
vn 0 -1 0
vn 0 -1 0
vn 0 0 -1
vn 0 0 -1
vn 0 0 -1
vn 0 0 -1
vn 0 0 -1
vn 1 -4.768372E-07 0
vn 1 -4.768372E-07 0
vn 1 -4.768372E-07 0
vn 1 -4.768372E-07 0
vn 1 -4.768372E-07 0
vn -1 0 0
vn -1 0 0
vn -1 0 0
vn -1 0 0
vn -1 0 0
vn 1 -4.768372E-07 0
vn 1 -4.768372E-07 0
vn 1 -4.768372E-07 0
vn 0 0 -1
vn 0 0 -1
vn 0 0 -1
vn 0 0 -1
vn 0 0 -1
vn 0 0 -1
vn -1 0 0
vn -1 0 0
vn -1 0 0
vn 0 0 1
vn 0 0 1
vn 0 0 1
vn 0 0 1
vn 0 0 1
vn -1 0 0
vn -1 0 0
vn -1 0 0
vn 0 0 1
vn 0 0 1
vn 0 0 1
vn 0 0 1
vn 0 0 1
vn 0 0 1
vn 1 -4.768372E-07 0
vn 1 -4.768372E-07 0
vn 1 -4.768372E-07 0
vn 1 0 0
vn 1 0 0
vn 1 0 0
vn 1 0 0
vn 0 0 -1
vn 0 0 -1
vn 0 0 -1
vn 0 0 -1
vn 0 0 -1
vn 0 0 -1
vn 0 0 -1
vn 0 0 -1
vn 0 0 -1
vn 0 0 -1
vn -1 0 0
vn -1 0 0
vn -1 0 0
vn -1 0 0
vn -1 0 0
vn -1 0 0
vn -1 0 0
vn -1 0 0
vn -1 0 0
vn -1 0 0
vn 0 0 1
vn 0 0 1
vn 0 0 1
vn 0 0 1
vn 0 0 1
vn 0 0 1
vn 0 0 1
vn 0 0 1
vn 0 0 1
vn 0 0 1
vn 1 0 0
vn 1 0 0
vn 1 0 0
vn 1 0 0
vn 1 0 0
vn 1 0 0

vt 0 0
vt -4 0
vt 0 4
vt -4 4
vt -8 0
vt -8 4
vt -12 0
vt -12 4
vt -16 0
vt -16 4
vt -20 0
vt -20 4
vt 0 8
vt -4 8
vt -16 8
vt -20 8
vt 0 12
vt -4 12
vt -16 12
vt -20 12
vt 0 16
vt -4 16
vt -16 16
vt -20 16
vt 0 20
vt -4 20
vt -8 16
vt -8 20
vt -12 16
vt -12 20
vt -16 20
vt -20 20
vt 4 6
vt 6 4
vt 6 6
vt 4 4
vt 8 4
vt 8 6
vt 4 8
vt 6 8
vt 10 4
vt 10 6
vt 12 4
vt 12 6
vt 14 4
vt 14 6
vt 16 4
vt 16 6
vt 14 8
vt 16 8
vt 4 10
vt 6 10
vt 4 12
vt 6 12
vt 14 10
vt 16 10
vt 14 12
vt 16 12
vt 4 14
vt 6 14
vt 6 16
vt 8 14
vt 8 16
vt 4 16
vt 10 16
vt 12 14
vt 12 16
vt 10 14
vt 14 14
vt 16 14
vt 14 16
vt 16 16
vt 8 0
vt 6 -1
vt 4 0
vt 4 -1
vt 8 -1
vt -4 -1.907349E-06
vt -6 -1.000002
vt -8 -1.907349E-06
vt -8 -1.000002
vt -4 -1.000002
vt 6 -1
vt 4 -1
vt 4 0
vt 8 0
vt 8 -1
vt -10 -1.000002
vt -12 -1.907349E-06
vt -12 -1.000002
vt 12 0
vt 10 -1
vt 12 -1
vt 16 0
vt 14 -1
vt 16 -1
vt 10 -1
vt 12 0
vt 12 -1
vt -10 -1
vt -12 -1
vt -12 0
vt -8 0
vt -8 -1
vt 14 -1
vt 16 0
vt 16 -1
vt -14 -1
vt -16 -1
vt -16 0
vt -6 -1
vt -4 0
vt -4 -1
vt -14 -1.000002
vt -16 -1.907349E-06
vt -16 -1.000002
vt -12 -1
vt -14 -1
vt -12 -0.25
vt -14 -0.25
vt 14 -1
vt 12 -1
vt 14 -0.25
vt 12 -0.25
vt 10 -1
vt 10 -0.25
vt 8 -1
vt 8 -0.25
vt 6 -1
vt 6 -0.25
vt 14 -1
vt 12 -1
vt 14 -0.25
vt 12 -0.25
vt 10 -1
vt 10 -0.25
vt 8 -1
vt 8 -0.25
vt 6 -1
vt 6 -0.25
vt -8 -1
vt -10 -1
vt -8 -0.25
vt -10 -0.25
vt -6 -1
vt -6 -0.25
vt -12 -1
vt -12 -0.25
vt -14 -1
vt -14 -0.25
vt -6 -1
vt -8 -1
vt -6 -0.25
vt -8 -0.25
vt -10 -1
vt -10 -0.25

g ceiling
usemtl Default_Prototype
f 3/3/3 2/2/2 1/1/1
f 3/3/3 4/4/4 2/2/2
f 4/4/4 5/5/5 2/2/2
f 4/4/4 6/6/6 5/5/5
f 6/6/6 7/7/7 5/5/5
f 6/6/6 8/8/8 7/7/7
f 8/8/8 9/9/9 7/7/7
f 8/8/8 10/10/10 9/9/9
f 10/10/10 11/11/11 9/9/9
f 10/10/10 12/12/12 11/11/11
f 13/13/13 4/4/4 3/3/3
f 13/13/13 14/14/14 4/4/4
f 15/15/15 12/12/12 10/10/10
f 15/15/15 16/16/16 12/12/12
f 17/17/17 14/14/14 13/13/13
f 17/17/17 18/18/18 14/14/14
f 19/19/19 16/16/16 15/15/15
f 19/19/19 20/20/20 16/16/16
f 21/21/21 18/18/18 17/17/17
f 21/21/21 22/22/22 18/18/18
f 23/23/23 20/20/20 19/19/19
f 23/23/23 24/24/24 20/20/20
f 25/25/25 22/22/22 21/21/21
f 25/25/25 26/26/26 22/22/22
f 26/26/26 27/27/27 22/22/22
f 26/26/26 28/28/28 27/27/27
f 28/28/28 29/29/29 27/27/27
f 28/28/28 30/30/30 29/29/29
f 30/30/30 23/23/23 29/29/29
f 30/30/30 31/31/31 23/23/23
f 31/31/31 24/24/24 23/23/23
f 31/31/31 32/32/32 24/24/24
f 35/35/35 34/34/34 33/33/33
f 34/34/34 36/36/36 33/33/33
f 38/38/38 37/37/37 35/35/35
f 37/37/37 34/34/34 35/35/35
f 40/40/40 35/35/35 39/39/39
f 35/35/35 33/33/33 39/39/39
f 42/42/42 41/41/41 38/38/38
f 41/41/41 37/37/37 38/38/38
f 44/44/44 43/43/43 42/42/42
f 43/43/43 41/41/41 42/42/42
f 46/46/46 45/45/45 44/44/44
f 45/45/45 43/43/43 44/44/44
f 48/48/48 47/47/47 46/46/46
f 47/47/47 45/45/45 46/46/46
f 50/50/50 48/48/48 49/49/49
f 48/48/48 46/46/46 49/49/49
f 52/52/52 40/40/40 51/51/51
f 40/40/40 39/39/39 51/51/51
f 54/54/54 52/52/52 53/53/53
f 52/52/52 51/51/51 53/53/53
f 56/56/56 50/50/50 55/55/55
f 50/50/50 49/49/49 55/55/55
f 58/58/58 56/56/56 57/57/57
f 56/56/56 55/55/55 57/57/57
f 60/60/60 54/54/54 59/59/59
f 54/54/54 53/53/53 59/59/59
f 63/63/63 62/62/62 61/61/61
f 62/62/62 60/60/60 61/61/61
f 61/61/61 60/60/60 64/64/64
f 60/60/60 59/59/59 64/64/64
f 67/67/67 66/66/66 65/65/65
f 66/66/66 68/68/68 65/65/65
f 65/65/65 68/68/68 63/63/63
f 68/68/68 62/62/62 63/63/63
f 70/70/70 58/58/58 69/69/69
f 58/58/58 57/57/57 69/69/69
f 72/72/72 70/70/70 71/71/71
f 70/70/70 69/69/69 71/71/71
f 71/71/71 69/69/69 67/67/67
f 69/69/69 66/66/66 67/67/67
f 75/75/75 74/74/74 73/73/73
f 75/75/75 76/76/76 74/74/74
f 74/74/74 77/77/77 73/73/73
f 80/80/80 79/79/79 78/78/78
f 80/80/80 81/81/81 79/79/79
f 79/79/79 82/82/82 78/78/78
f 85/85/85 84/84/84 83/83/83
f 83/83/83 87/87/87 86/86/86
f 85/85/85 83/83/83 86/86/86
f 89/89/89 88/88/88 80/80/80
f 89/89/89 90/90/90 88/88/88
f 88/88/88 81/81/81 80/80/80
f 73/73/73 92/92/92 91/91/91
f 73/73/73 77/77/77 92/92/92
f 92/92/92 93/93/93 91/91/91
f 91/91/91 95/95/95 94/94/94
f 91/91/91 93/93/93 95/95/95
f 95/95/95 96/96/96 94/94/94
f 86/86/86 87/87/87 97/97/97
f 97/97/97 99/99/99 98/98/98
f 86/86/86 97/97/97 98/98/98
f 102/102/102 101/101/101 100/100/100
f 100/100/100 104/104/104 103/103/103
f 102/102/102 100/100/100 103/103/103
f 98/98/98 99/99/99 105/105/105
f 105/105/105 107/107/107 106/106/106
f 98/98/98 105/105/105 106/106/106
f 110/110/110 109/109/109 108/108/108
f 108/108/108 101/101/101 102/102/102
f 110/110/110 108/108/108 102/102/102
f 103/103/103 104/104/104 111/111/111
f 111/111/111 113/113/113 112/112/112
f 103/103/103 111/111/111 112/112/112
f 115/115/115 114/114/114 89/89/89
f 115/115/115 116/116/116 114/114/114
f 114/114/114 90/90/90 89/89/89
f 119/119/119 118/118/118 117/117/117
f 119/119/119 120/120/120 118/118/118
f 123/123/123 122/122/122 121/121/121
f 123/123/123 124/124/124 122/122/122
f 124/124/124 125/125/125 122/122/122
f 124/124/124 126/126/126 125/125/125
f 126/126/126 127/127/127 125/125/125
f 126/126/126 128/128/128 127/127/127
f 128/128/128 129/129/129 127/127/127
f 128/128/128 130/130/130 129/129/129
f 133/133/133 132/132/132 131/131/131
f 133/133/133 134/134/134 132/132/132
f 134/134/134 135/135/135 132/132/132
f 134/134/134 136/136/136 135/135/135
f 136/136/136 137/137/137 135/135/135
f 136/136/136 138/138/138 137/137/137
f 138/138/138 139/139/139 137/137/137
f 138/138/138 140/140/140 139/139/139
f 143/143/143 142/142/142 141/141/141
f 143/143/143 144/144/144 142/142/142
f 146/146/146 141/141/141 145/145/145
f 146/146/146 143/143/143 141/141/141
f 144/144/144 147/147/147 142/142/142
f 144/144/144 148/148/148 147/147/147
f 148/148/148 149/149/149 147/147/147
f 148/148/148 150/150/150 149/149/149
f 153/153/153 152/152/152 151/151/151
f 153/153/153 154/154/154 152/152/152
f 156/156/156 117/117/117 155/155/155
f 156/156/156 119/119/119 117/117/117
f 154/154/154 155/155/155 152/152/152
f 154/154/154 156/156/156 155/155/155

