# Exported from ProBuilder
# http://www.procore3d.com/probuilder
# 12/30/2018 5:51:50 PM

mtllib ./floor-bevels.mtl
o floor-bevels

g floor-bevels
v -10 0 10
v -30 0 10
v -10 0.5 10
v -30 0.5 10
v -30 0 10
v -30 0 9
v -30 0.5 10
v -30 0.5 9
v -30 0 9
v -10 0 9
v -30 0.5 9
v -10 0.5 9
v -10 0 9
v -10 0 10
v -10 0.5 9
v -10 0.5 10
v -10 1 10
v -30 1 10
v -10 1 10
v -30 1 10
v -30 1 10
v -10 1 10
v -10 0 9
v -30 0 9
v -10 0 10
v -30 0 10
v -30 1 10
v -10 1 10
v -10 1 10
v -10 0.5 9
v -10 1 10
v -10 1 10
v -10 0.5 9
v -30 1 10
v -30 0.5 10
v -30 1 10
v -30 1 10
v -30 0.5 10
v -10 1 10
v -30 0.5 9
v -10 0.5 9
v -30 1 10
v -30 0 -10
v -10 0 -10
v -30 0.5 -10
v -10 0.5 -10
v -10 0 -10
v -10 0 -9
v -10 0.5 -10
v -10 0.5 -9
v -10 0 -9
v -30 0 -9
v -10 0.5 -9
v -30 0.5 -9
v -30 0 -9
v -30 0 -10
v -30 0.5 -9
v -30 0.5 -10
v -30 1 -10
v -10 1 -10
v -30 1 -10
v -10 1 -10
v -10 1 -10
v -30 1 -10
v -30 0 -9
v -10 0 -9
v -30 0 -10
v -10 0 -10
v -10 1 -10
v -30 1 -10
v -30 1 -10
v -30 0.5 -9
v -30 1 -10
v -30 1 -10
v -30 0.5 -9
v -10 1 -10
v -10 0.5 -10
v -10 1 -10
v -10 1 -10
v -10 0.5 -10
v -30 1 -10
v -10 0.5 -9
v -30 0.5 -9
v -10 1 -10

vn 0 0 1
vn 0 0 1
vn 0 0 1
vn 0 0 1
vn -1 0 0
vn -1 0 0
vn -1 0 0
vn -1 0 0
vn 0 0 -1
vn 0 0 -1
vn 0 0 -1
vn 0 0 -1
vn 1 0 0
vn 1 0 0
vn 1 0 0
vn 1 0 0
vn 0 0 0
vn 0 0 0
vn 0 0 0
vn 0 0 0
vn 0 0 0
vn 0 0 0
vn 0 -1 0
vn 0 -1 0
vn 0 -1 0
vn 0 -1 0
vn 0 0 1
vn 0 0 1
vn 1 0 0
vn 1 0 0
vn 1 0 0
vn 0 0 0
vn 1 0 0
vn -1 0 0
vn -1 0 0
vn -1 0 0
vn 0 0 0
vn -1 0 0
vn 0 0.8944272 -0.4472136
vn 0 0.8944272 -0.4472136
vn 0 0.8944272 -0.4472136
vn 0 0.8944272 -0.4472136
vn 0 0 -1
vn 0 0 -1
vn 0 0 -1
vn 0 0 -1
vn 1 0 0
vn 1 0 0
vn 1 0 0
vn 1 0 0
vn 0 0 1
vn 0 0 1
vn 0 0 1
vn 0 0 1
vn -1 0 0
vn -1 0 0
vn -1 0 0
vn -1 0 0
vn 0 0 0
vn 0 0 0
vn 0 0 0
vn 0 0 0
vn 0 0 0
vn 0 0 0
vn 0 -1 0
vn 0 -1 0
vn 0 -1 0
vn 0 -1 0
vn 0 0 -1
vn 0 0 -1
vn -1 0 0
vn -1 0 0
vn -1 0 0
vn 0 0 0
vn -1 0 0
vn 1 0 0
vn 1 0 0
vn 1 0 0
vn 0 0 0
vn 1 0 0
vn 0 0.8944272 0.4472136
vn 0 0.8944272 0.4472136
vn 0 0.8944272 0.4472136
vn 0 0.8944272 0.4472136

vt 0 0
vt -20 0
vt 0 0.5
vt -20 0.5
vt 0 0
vt -1 0
vt 0 0.5
vt -1 0.5
vt 20 0
vt 0 0
vt 20 0.5
vt 0 0.5
vt 1 0
vt 0 0
vt 1 0.5
vt 0 0.5
vt 0.5 -0.5
vt 19.5 -0.5
vt 0.5 -0.5
vt 19.5 -0.5
vt 19.5 -0.5
vt 0.5 -0.5
vt 0 -1
vt -20 -1
vt 0 0
vt -20 0
vt -20 1
vt 0 1
vt 0 1
vt 1 0.5
vt 0 1
vt 0 1
vt 1 0.5
vt 0 1
vt 0 0.5
vt 0 1
vt 0 1
vt 0 0.5
vt 0 0.4472136
vt 20 -0.6708204
vt 0 -0.6708204
vt 20 0.4472136
vt 0 0
vt -20 0
vt 0 0.5
vt -20 0.5
vt 0 0
vt -1 0
vt 0 0.5
vt -1 0.5
vt 20 0
vt 0 0
vt 20 0.5
vt 0 0.5
vt 1 0
vt 0 0
vt 1 0.5
vt 0 0.5
vt 0.5 -0.5
vt 19.5 -0.5
vt 0.5 -0.5
vt 19.5 -0.5
vt 19.5 -0.5
vt 0.5 -0.5
vt 0 -1
vt -20 -1
vt 0 0
vt -20 0
vt -20 1
vt 0 1
vt 0 1
vt 1 0.5
vt 0 1
vt 0 1
vt 1 0.5
vt 0 1
vt 0 0.5
vt 0 1
vt 0 1
vt 0 0.5
vt 0 0.4472136
vt 20 -0.6708204
vt 0 -0.6708204
vt 20 0.4472136

g floor-bevels
usemtl Default_Prototype
f 3/3/3 2/2/2 1/1/1
f 3/3/3 4/4/4 2/2/2
f 7/7/7 6/6/6 5/5/5
f 7/7/7 8/8/8 6/6/6
f 11/11/11 10/10/10 9/9/9
f 11/11/11 12/12/12 10/10/10
f 15/15/15 14/14/14 13/13/13
f 15/15/15 16/16/16 14/14/14
f 19/19/19 18/18/18 17/17/17
f 22/22/22 21/21/21 20/20/20
f 25/25/25 24/24/24 23/23/23
f 25/25/25 26/26/26 24/24/24
f 4/4/4 3/3/3 27/27/27
f 3/3/3 28/28/28 27/27/27
f 16/16/16 30/30/30 29/29/29
f 33/33/33 32/32/32 31/31/31
f 8/8/8 35/35/35 34/34/34
f 38/38/38 37/37/37 36/36/36
f 41/41/41 40/40/40 39/39/39
f 40/40/40 42/42/42 39/39/39
f 45/45/45 44/44/44 43/43/43
f 45/45/45 46/46/46 44/44/44
f 49/49/49 48/48/48 47/47/47
f 49/49/49 50/50/50 48/48/48
f 53/53/53 52/52/52 51/51/51
f 53/53/53 54/54/54 52/52/52
f 57/57/57 56/56/56 55/55/55
f 57/57/57 58/58/58 56/56/56
f 61/61/61 60/60/60 59/59/59
f 64/64/64 63/63/63 62/62/62
f 67/67/67 66/66/66 65/65/65
f 67/67/67 68/68/68 66/66/66
f 46/46/46 45/45/45 69/69/69
f 45/45/45 70/70/70 69/69/69
f 58/58/58 72/72/72 71/71/71
f 75/75/75 74/74/74 73/73/73
f 50/50/50 77/77/77 76/76/76
f 80/80/80 79/79/79 78/78/78
f 83/83/83 82/82/82 81/81/81
f 82/82/82 84/84/84 81/81/81

