# Exported from ProBuilder
# http://www.procore3d.com/probuilder
# 12/30/2018 5:51:07 PM

mtllib ./floor.mtl
o floor

g floor
v -10 0 -10
v -10 0 -6
v -14 0 -10
v -14 0 -6
v -10 0 -2
v -14 0 -2
v -10 0 2
v -14 0 2
v -10 0 6
v -14 0 6
v -10 0 10
v -14 0 10
v -18 0 -10
v -18 0 -6
v -18 0 -2
v -18 0 2
v -18 0 6
v -18 0 10
v -22 0 -10
v -22 0 -6
v -22 0 -2
v -22 0 2
v -22 0 6
v -22 0 10
v -26 0 -10
v -26 0 -6
v -26 0 -2
v -26 0 2
v -26 0 6
v -26 0 10
v -30 0 -10
v -30 0 -6
v -30 0 -2
v -30 0 2
v -30 0 6
v -30 0 10

vn 0 1 0
vn 0 1 0
vn 0 1 0
vn 0 1 0
vn 0 1 0
vn 0 1 0
vn 0 1 0
vn 0 1 0
vn 0 1 0
vn 0 1 0
vn 0 1 0
vn 0 1 0
vn 0 1 0
vn 0 1 0
vn 0 1 0
vn 0 1 0
vn 0 1 0
vn 0 1 0
vn 0 1 0
vn 0 1 0
vn 0 1 0
vn 0 1 0
vn 0 1 0
vn 0 1 0
vn 0 1 0
vn 0 1 0
vn 0 1 0
vn 0 1 0
vn 0 1 0
vn 0 1 0
vn 0 1 0
vn 0 1 0
vn 0 1 0
vn 0 1 0
vn 0 1 0
vn 0 1 0

vt 0 0
vt 0 4
vt 4 0
vt 4 4
vt 0 8
vt 4 8
vt 0 12
vt 4 12
vt 0 16
vt 4 16
vt 0 20
vt 4 20
vt 8 0
vt 8 4
vt 8 8
vt 8 12
vt 8 16
vt 8 20
vt 12 0
vt 12 4
vt 12 8
vt 12 12
vt 12 16
vt 12 20
vt 16 0
vt 16 4
vt 16 8
vt 16 12
vt 16 16
vt 16 20
vt 20 0
vt 20 4
vt 20 8
vt 20 12
vt 20 16
vt 20 20

g floor
usemtl Default_Prototype
f 3/3/3 2/2/2 1/1/1
f 3/3/3 4/4/4 2/2/2
f 4/4/4 5/5/5 2/2/2
f 4/4/4 6/6/6 5/5/5
f 6/6/6 7/7/7 5/5/5
f 6/6/6 8/8/8 7/7/7
f 8/8/8 9/9/9 7/7/7
f 8/8/8 10/10/10 9/9/9
f 10/10/10 11/11/11 9/9/9
f 10/10/10 12/12/12 11/11/11
f 13/13/13 4/4/4 3/3/3
f 13/13/13 14/14/14 4/4/4
f 14/14/14 6/6/6 4/4/4
f 14/14/14 15/15/15 6/6/6
f 15/15/15 8/8/8 6/6/6
f 15/15/15 16/16/16 8/8/8
f 16/16/16 10/10/10 8/8/8
f 16/16/16 17/17/17 10/10/10
f 17/17/17 12/12/12 10/10/10
f 17/17/17 18/18/18 12/12/12
f 19/19/19 14/14/14 13/13/13
f 19/19/19 20/20/20 14/14/14
f 20/20/20 15/15/15 14/14/14
f 20/20/20 21/21/21 15/15/15
f 21/21/21 16/16/16 15/15/15
f 21/21/21 22/22/22 16/16/16
f 22/22/22 17/17/17 16/16/16
f 22/22/22 23/23/23 17/17/17
f 23/23/23 18/18/18 17/17/17
f 23/23/23 24/24/24 18/18/18
f 25/25/25 20/20/20 19/19/19
f 25/25/25 26/26/26 20/20/20
f 26/26/26 21/21/21 20/20/20
f 26/26/26 27/27/27 21/21/21
f 27/27/27 22/22/22 21/21/21
f 27/27/27 28/28/28 22/22/22
f 28/28/28 23/23/23 22/22/22
f 28/28/28 29/29/29 23/23/23
f 29/29/29 24/24/24 23/23/23
f 29/29/29 30/30/30 24/24/24
f 31/31/31 26/26/26 25/25/25
f 31/31/31 32/32/32 26/26/26
f 32/32/32 27/27/27 26/26/26
f 32/32/32 33/33/33 27/27/27
f 33/33/33 28/28/28 27/27/27
f 33/33/33 34/34/34 28/28/28
f 34/34/34 29/29/29 28/28/28
f 34/34/34 35/35/35 29/29/29
f 35/35/35 30/30/30 29/29/29
f 35/35/35 36/36/36 30/30/30

